<?xml version="1.0" encoding="UTF-8" standalone="no"?>
<svg
   xmlns:dc="http://purl.org/dc/elements/1.1/"
   xmlns:cc="http://creativecommons.org/ns#"
   xmlns:rdf="http://www.w3.org/1999/02/22-rdf-syntax-ns#"
   xmlns:svg="http://www.w3.org/2000/svg"
   xmlns="http://www.w3.org/2000/svg"
   viewBox="0 0 577.33331 312"
   height="312"
   width="577.33331"
   xml:space="preserve"
   id="svg2"
   version="1.1"><metadata
     id="metadata8"><rdf:RDF><cc:Work
         rdf:about=""><dc:format>image/svg+xml</dc:format><dc:type
           rdf:resource="http://purl.org/dc/dcmitype/StillImage" /></cc:Work></rdf:RDF></metadata><defs
     id="defs6" /><g
     transform="matrix(1.3333333,0,0,-1.3333333,0,312)"
     id="g10"><g
       transform="scale(0.1)"
       id="g12"><path
         id="path14"
         style="fill:#0083c2;fill-opacity:1;fill-rule:evenodd;stroke:none"
         d="m 2733.4,2014.49 h -202.5 c -34.34,-93.01 -81.02,-178.47 -140,-256.48 -59.34,-77.66 -128.36,-145.51 -207.03,-203.52 -78.64,-57.65 -165,-103.01 -258.99,-135.97 v -213.01 c 0.35,-18.67 6.84,-34.34 19.5,-46.99 12.34,-12.35 28,-18.87 46.99,-19.54 h 416.52 c 18.99,0.67 34.65,7.19 46.99,19.54 12.66,12.65 19.18,28.32 19.5,46.99 V 1465 h 259.02 c 18.98,0.35 34.65,6.84 46.99,19.49 12.66,12.35 19.14,28.01 19.49,46.99 v 416.53 c -0.35,18.98 -6.83,34.65 -19.49,46.99 -12.34,12.66 -28.01,19.18 -46.99,19.49" /><path
         id="path16"
         style="fill:#0093d5;fill-opacity:1;fill-rule:evenodd;stroke:none"
         d="M 2733.87,2014.49 H 2530.9 c -26.37,-71.99 -60.35,-139.49 -102.03,-202.5 -41.64,-63.01 -89.65,-120.66 -143.99,-173.01 73.01,-12.3 147.85,-18.63 224.5,-18.98 100,0.35 196.99,11.17 291.01,32.5 v 295.51 c -0.66,18.98 -7.19,34.65 -19.49,46.99 -12.7,12.66 -28.36,19.18 -47.03,19.49" /><path
         id="path18"
         style="fill:#d7172f;fill-opacity:1;fill-rule:evenodd;stroke:none"
         d="m 2407.89,2340 h -416.52 c -18.64,-0.35 -34.34,-6.84 -46.99,-19.49 -12.35,-12.66 -18.83,-28.36 -19.5,-46.99 V 2014.49 H 1665.9 c -19.02,-0.66 -34.69,-7.15 -47.03,-19.49 -12.66,-12.66 -19.14,-28.32 -19.49,-46.99 v -416.53 c 0.35,-18.98 6.83,-34.64 19.49,-46.99 12.34,-12.65 28.01,-19.14 47.03,-19.49 h 222.5 c 90.31,29.65 173.48,71.33 249.49,125 75.98,53.67 142.66,117.15 200,190.51 57.34,73.01 102.81,153.67 136.49,241.99 v 251.02 c -0.32,18.63 -6.84,34.33 -19.5,46.99 -12.34,12.65 -28,19.14 -46.99,19.49" /><path
         id="path20"
         style="fill:#e71a33;fill-opacity:1;fill-rule:evenodd;stroke:none"
         d="m 2216.88,1652.5 c 56.99,50 107.18,106.17 150.5,168.52 43.67,62.3 79.34,129.49 107,201.48 v 251.02 c -0.67,18.63 -7.15,34.33 -19.5,46.99 -12.65,12.65 -28.32,19.14 -46.99,19.49 H 1990.9 c -18.67,-0.35 -34.34,-6.84 -47.03,-19.49 -12.31,-12.66 -18.83,-28.36 -19.49,-46.99 v -259.03 h -258.99 c -13.36,-0.31 -25.35,-3.98 -36.01,-10.97 -10.32,-6.68 -18.33,-15.86 -23.99,-27.5 84.65,-79.03 178.48,-146.02 281.49,-201.02 103,-55 213,-95.82 330,-122.5" /><path
         id="path22"
         style="fill:#0083c2;fill-opacity:1;fill-rule:nonzero;stroke:none"
         d="m 473.051,683.949 h 21.398 l 15.473,-48.437 c 4.769,-5.121 10.348,-9.34 16.719,-12.66 6.328,-3.364 13.05,-6.012 20.16,-7.973 7.07,-1.867 14.41,-3.238 22.027,-4.059 7.582,-0.859 14.922,-1.25 22.031,-1.25 8.942,0 17.852,1.168 26.719,3.59 8.942,2.5 16.953,6.328 24.063,11.57 7.07,5.309 12.808,12.032 17.187,20.149 4.371,8.211 6.563,18.012 6.563,29.383 0,10.386 -2.582,19.84 -7.661,28.277 -5,8.441 -11.679,16.289 -20,23.59 -8.242,7.391 -17.769,14.301 -28.589,20.781 -10.86,6.57 -21.993,13.012 -33.442,19.379 -12.301,6.871 -24.449,13.981 -36.398,21.41 -12,7.5 -22.742,15.66 -32.192,24.531 -9.379,8.942 -17.031,18.821 -22.968,29.68 -5.86,10.942 -8.75,23.211 -8.75,36.879 0,11.441 1.757,21.723 5.308,30.781 3.641,9.141 8.442,17.192 14.379,24.059 5.942,6.961 12.852,12.973 20.781,17.973 7.891,5 16.172,9.058 24.84,12.187 8.75,3.199 17.582,5.551 26.571,7.031 8.941,1.45 17.5,2.192 25.621,2.192 11.879,0 22.808,-0.59 32.808,-1.723 10,-1.059 18.949,-2.5 26.879,-4.379 8.012,-1.871 14.883,-3.98 20.621,-6.25 5.821,-2.18 10.551,-4.332 14.223,-6.398 v -67.66 h -20.781 l -19.063,46.878 c -2.93,2.571 -6.488,4.879 -10.629,6.872 -4.179,1.949 -8.828,3.597 -13.898,4.847 -5.121,1.321 -10.59,2.262 -16.41,2.813 -5.743,0.617 -11.563,0.937 -17.5,0.937 -6.68,0 -14.02,-1.058 -22.032,-3.129 -8.05,-1.992 -15.589,-5.39 -22.66,-10.16 -6.988,-4.801 -12.89,-11.172 -17.648,-19.058 -4.813,-7.93 -7.192,-17.813 -7.192,-29.692 0,-9.289 2.231,-17.808 6.719,-25.621 4.453,-7.809 10.473,-15.078 17.973,-21.719 7.578,-6.679 16.289,-13.05 26.09,-19.058 9.879,-6.063 20.23,-11.961 31.089,-17.66 12.821,-6.993 25.711,-14.223 38.75,-21.723 13.008,-7.5 24.692,-15.859 35,-25 10.321,-9.18 18.68,-19.328 25.161,-30.469 6.558,-11.172 9.839,-23.898 9.839,-38.281 0,-18.238 -3.429,-33.828 -10.308,-46.719 -6.801,-12.93 -15.942,-23.551 -27.5,-31.871 -11.563,-8.238 -24.961,-14.301 -40.152,-18.129 -15.239,-3.82 -31.219,-5.781 -47.969,-5.781 -12.192,0 -24.223,0.711 -36.102,2.031 -11.789,1.25 -22.648,2.891 -32.648,4.852 -10,2.066 -18.75,4.289 -26.25,6.718 -7.5,2.5 -12.93,4.758 -16.25,6.872 z m 284.179,90.153 c 0.622,31.019 5.622,58.75 15,83.128 9.372,24.45 21.911,45.149 37.649,62.032 15.82,16.949 34.141,30 55,39.058 20.82,9.141 43.051,14.059 66.723,14.692 25.308,0.699 48.128,-3.602 68.438,-12.973 20.39,-9.379 37.66,-22.617 51.72,-39.687 14.06,-16.993 24.72,-37.262 32.03,-60.782 7.38,-23.441 10.82,-49.019 10.31,-76.718 -0.62,-31.051 -5.47,-58.832 -14.53,-83.282 -8.98,-24.492 -21.09,-45.269 -36.41,-62.34 -15.31,-17 -33.2,-30.082 -53.59,-39.218 -20.429,-9.063 -42.191,-13.832 -65.308,-14.383 -25.742,-0.391 -49.032,4.031 -69.852,13.281 -20.859,9.379 -38.551,22.578 -53.121,39.692 -14.609,17.07 -25.738,37.347 -33.437,60.777 -7.622,23.441 -11.172,48.992 -10.622,76.723 z m 171.09,-164.84 c 17.891,0 33.828,3.937 47.809,11.867 14.07,7.891 25.941,19.301 35.631,34.223 9.69,14.878 17.03,33.007 22.03,54.378 5.08,21.442 7.66,45.782 7.66,72.969 0,14.141 -1.1,28.039 -3.29,41.711 -2.18,13.641 -5.46,26.488 -9.84,38.602 -4.3,12.187 -9.61,23.437 -15.94,33.75 -6.36,10.308 -13.829,19.136 -22.341,26.558 -8.437,7.5 -17.93,13.321 -28.437,17.5 -10.43,4.258 -21.832,6.41 -34.223,6.41 -17.93,0 -34.141,-3.91 -48.59,-11.718 -14.488,-7.813 -26.84,-19.184 -37.027,-34.063 -10.121,-14.808 -17.973,-32.898 -23.602,-54.219 -5.539,-21.371 -8.281,-45.628 -8.281,-72.82 0,-21.359 2.66,-41.949 7.973,-61.711 5.308,-19.808 13.007,-37.429 23.128,-52.82 10.071,-15.309 22.418,-27.609 37.032,-36.867 14.687,-9.184 31.437,-13.75 50.308,-13.75 z" /><path
         id="path24"
         style="fill:#0083c2;fill-opacity:1;fill-rule:nonzero;stroke:none"
         d="m 1152.73,683.949 h 21.41 l 15.47,-48.437 c 4.77,-5.121 10.35,-9.34 16.72,-12.66 6.33,-3.364 13.05,-6.012 20.15,-7.973 7.07,-1.867 14.42,-3.238 22.04,-4.059 7.57,-0.859 14.92,-1.25 22.03,-1.25 8.94,0 17.85,1.168 26.72,3.59 8.94,2.5 16.95,6.328 24.06,11.57 7.07,5.309 12.81,12.032 17.19,20.149 4.37,8.211 6.56,18.012 6.56,29.383 0,10.386 -2.58,19.84 -7.66,28.277 -5,8.441 -11.68,16.289 -20,23.59 -8.24,7.391 -17.77,14.301 -28.59,20.781 -10.86,6.57 -21.99,13.012 -33.44,19.379 -12.3,6.871 -24.45,13.981 -36.41,21.41 -11.99,7.5 -22.73,15.66 -32.18,24.531 -9.38,8.942 -17.03,18.821 -22.97,29.68 -5.86,10.942 -8.75,23.211 -8.75,36.879 0,11.441 1.76,21.723 5.31,30.781 3.63,9.141 8.44,17.192 14.38,24.059 5.93,6.961 12.85,12.973 20.78,17.973 7.89,5 16.17,9.058 24.84,12.187 8.75,3.199 17.58,5.551 26.56,7.031 8.95,1.45 17.5,2.192 25.63,2.192 11.87,0 22.81,-0.59 32.81,-1.723 10,-1.059 18.95,-2.5 26.88,-4.379 8,-1.871 14.88,-3.98 20.62,-6.25 5.82,-2.18 10.55,-4.332 14.22,-6.398 v -67.66 h -20.78 l -19.06,46.878 c -2.93,2.571 -6.49,4.879 -10.63,6.872 -4.18,1.949 -8.83,3.597 -13.91,4.847 -5.11,1.321 -10.58,2.262 -16.4,2.813 -5.74,0.617 -11.56,0.937 -17.5,0.937 -6.68,0 -14.03,-1.058 -22.03,-3.129 -8.05,-1.992 -15.59,-5.39 -22.66,-10.16 -6.99,-4.801 -12.89,-11.172 -17.66,-19.058 -4.8,-7.93 -7.18,-17.813 -7.18,-29.692 0,-9.289 2.22,-17.808 6.72,-25.621 4.45,-7.809 10.46,-15.078 17.96,-21.719 7.58,-6.679 16.29,-13.05 26.1,-19.058 9.88,-6.063 20.23,-11.961 31.09,-17.66 12.81,-6.993 25.71,-14.223 38.75,-21.723 13.01,-7.5 24.69,-15.859 35,-25 10.31,-9.18 18.67,-19.328 25.16,-30.469 6.56,-11.172 9.84,-23.898 9.84,-38.281 0,-18.238 -3.44,-33.828 -10.31,-46.719 -6.8,-12.93 -15.94,-23.551 -27.5,-31.871 -11.56,-8.238 -24.96,-14.301 -40.16,-18.129 -15.23,-3.82 -31.21,-5.781 -47.97,-5.781 -12.18,0 -24.21,0.711 -36.09,2.031 -11.8,1.25 -22.66,2.891 -32.66,4.852 -10,2.066 -18.75,4.289 -26.25,6.718 -7.5,2.5 -12.93,4.758 -16.25,6.872 z" /><path
         id="path26"
         style="fill:#0083c2;fill-opacity:1;fill-rule:nonzero;stroke:none"
         d="m 1568.75,611.289 41.25,7.34 v 322.66 l -40.31,4.371 v 24.07 h 127.65 v -24.07 l -39.84,-4.058 v -152.34 h 187.34 v 152.34 l -40.31,4.058 v 24.07 h 127.03 v -24.07 l -39.37,-4.058 V 618.629 l 42.03,-7.34 v -20.777 h -131.41 v 20.777 l 42.03,7.031 V 760.512 H 1657.5 V 618.629 l 42.03,-7.34 v -20.777 h -130.78 z" /><path
         id="path28"
         style="fill:#0083c2;fill-opacity:1;fill-rule:nonzero;stroke:none"
         d="m 1981.84,774.102 c 0.62,31.019 5.62,58.75 15,83.128 9.37,24.45 21.91,45.149 37.65,62.032 15.82,16.949 34.14,30 55,39.058 20.82,9.141 43.05,14.059 66.72,14.692 25.31,0.699 48.13,-3.602 68.44,-12.973 20.39,-9.379 37.65,-22.617 51.72,-39.687 14.06,-16.993 24.72,-37.262 32.03,-60.782 7.38,-23.441 10.82,-49.019 10.31,-76.718 -0.62,-31.051 -5.47,-58.832 -14.53,-83.282 -8.98,-24.492 -21.09,-45.269 -36.41,-62.34 -15.31,-17 -33.2,-30.082 -53.59,-39.218 -20.43,-9.063 -42.19,-13.832 -65.31,-14.383 -25.75,-0.391 -49.03,4.031 -69.85,13.281 -20.86,9.379 -38.55,22.578 -53.12,39.692 -14.61,17.07 -25.74,37.347 -33.44,60.777 -7.62,23.441 -11.17,48.992 -10.62,76.723 z m 171.09,-164.84 c 17.89,0 33.83,3.937 47.81,11.867 14.06,7.891 25.94,19.301 35.63,34.223 9.68,14.878 17.03,33.007 22.03,54.378 5.08,21.442 7.65,45.782 7.65,72.969 0,14.141 -1.09,28.039 -3.28,41.711 -2.18,13.641 -5.47,26.488 -9.84,38.602 -4.3,12.187 -9.61,23.437 -15.94,33.75 -6.37,10.308 -13.83,19.136 -22.34,26.558 -8.44,7.5 -17.93,13.321 -28.44,17.5 -10.43,4.258 -21.83,6.41 -34.22,6.41 -17.93,0 -34.14,-3.91 -48.59,-11.718 -14.49,-7.813 -26.84,-19.184 -37.03,-34.063 -10.12,-14.808 -17.97,-32.898 -23.6,-54.219 -5.54,-21.371 -8.28,-45.628 -8.28,-72.82 0,-21.359 2.66,-41.949 7.97,-61.711 5.31,-19.808 13.01,-37.429 23.13,-52.82 10.07,-15.309 22.42,-27.609 37.03,-36.867 14.68,-9.184 31.44,-13.75 50.31,-13.75 z" /><path
         id="path30"
         style="fill:#0083c2;fill-opacity:1;fill-rule:nonzero;stroke:none"
         d="m 2358.44,611.289 42.03,7.031 24.37,320.629 -47.5,4.063 v 26.718 h 112.5 l 87.82,-266.25 11.25,-35.781 11.25,36.871 84.06,265.16 h 103.75 v -26.718 l -45.63,-4.063 27.5,-320.32 42.04,-7.34 v -20.777 h -127.04 v 20.777 l 40.16,7.031 -20,228.59 -2.5,84.379 -10,-39.687 -102.81,-304.692 h -16.41 l -93.75,267.039 c -4.69,13.199 -9.22,26.481 -13.59,39.84 -4.38,13.32 -8.87,26.641 -13.44,40 l -2.03,-83.437 -11.88,-231.723 46.41,-7.34 v -20.777 h -126.56 z" /><path
         id="path32"
         style="fill:#0083c2;fill-opacity:1;fill-rule:nonzero;stroke:none"
         d="m 2846.95,611.289 41.25,7.34 v 322.66 l -40.15,4.371 v 24.07 h 253.43 l 7.04,-69.851 h -26.88 l -11.25,40.941 -134.69,3.282 v -142.34 l 90.78,1.718 7.35,38.282 h 24.84 v -105 h -24.84 l -7.35,37.34 -90.78,1.41 V 616.91 l 145,4.539 24.38,50.621 23.75,-5.941 -11.1,-75.617 h -270.78 z" /><path
         id="path34"
         style="fill:#0083c2;fill-opacity:1;fill-rule:nonzero;stroke:none"
         d="m 3293.24,611.289 46.25,7.34 v 320.32 l -40.31,4.063 v 26.718 h 64.22 c 3.83,0 8.98,0.149 15.47,0.469 6.56,0.313 13.79,0.66 21.72,1.09 7.89,0.512 16.13,0.941 24.68,1.25 8.52,0.313 16.88,0.473 25,0.473 18.75,0 35.94,-1.801 51.57,-5.313 15.62,-3.558 28.98,-9.687 40.15,-18.437 11.25,-8.672 20,-20.282 26.25,-34.852 6.33,-14.488 9.53,-32.73 9.53,-54.68 0,-13.128 -1.87,-25.429 -5.62,-36.878 -3.67,-11.372 -8.75,-21.68 -15.31,-30.942 -6.49,-9.289 -14.18,-17.5 -23.13,-24.68 -8.87,-7.109 -18.51,-13.05 -28.91,-17.82 -10.42,-4.68 -21.48,-8.238 -33.12,-10.621 -11.68,-2.309 -23.44,-3.277 -35.31,-2.969 -12.42,0.309 -22.46,0.352 -30.16,0.16 -7.62,-0.121 -14.02,-0.589 -19.22,-1.41 V 618.629 l 65.31,-7.34 v -20.777 h -159.06 z m 93.75,152.031 c 9.26,-1.25 17.85,-2.031 25.78,-2.34 7.89,-0.242 15.51,-0.32 22.82,-0.32 7.81,0 15.54,0.512 23.28,1.57 7.81,1.008 15.15,2.891 22.03,5.622 6.95,2.699 13.44,6.328 19.37,10.937 5.94,4.691 11.02,10.66 15.32,17.973 4.25,7.379 7.57,16.129 10,26.25 2.5,10.187 3.75,22.218 3.75,36.09 0,29.878 -8.44,52.07 -25.32,66.558 -16.79,14.461 -40.9,21.25 -72.34,20.32 -7.93,-0.32 -15.55,-0.781 -22.81,-1.41 -7.19,-0.55 -14.49,-1.679 -21.88,-3.441 z" /><path
         id="path36"
         style="fill:#0083c2;fill-opacity:1;fill-rule:nonzero;stroke:none"
         d="m 3609.65,767.23 c 0,21.008 2.42,40.661 7.34,58.899 4.89,18.32 11.72,35.16 20.47,50.473 8.83,15.308 19.38,28.91 31.56,40.777 12.19,11.883 25.55,21.961 40.16,30.32 14.57,8.321 30.08,14.602 46.56,18.903 16.45,4.257 33.36,6.41 50.78,6.41 11.64,0 22.54,-0.711 32.66,-2.032 10.08,-1.371 19.37,-2.968 27.81,-4.851 8.52,-1.867 16.17,-3.828 22.97,-5.777 6.88,-1.993 12.97,-3.512 18.28,-4.532 l -3.9,-70.941 h -25.79 l -12.81,40.781 c -5.23,3.442 -10.43,6.328 -15.62,8.75 -5.24,2.5 -10.78,4.539 -16.72,6.102 -5.94,1.558 -12.35,2.648 -19.22,3.277 -6.88,0.621 -14.61,0.941 -23.13,0.941 -17.42,0 -34.06,-3.601 -50,-10.781 -15.85,-7.109 -29.8,-17.578 -41.87,-31.41 -12.11,-13.867 -21.72,-30.898 -28.91,-51.09 -7.18,-20.121 -10.78,-43.129 -10.78,-69.07 0,-23.117 2.85,-45.149 8.6,-66.09 5.82,-20.859 14.45,-39.219 25.93,-55.16 11.45,-15.859 25.63,-28.43 42.5,-37.809 16.96,-9.371 36.6,-14.058 58.91,-14.058 19.77,0 35.94,2.539 48.44,7.648 12.5,5.199 22.38,12.43 29.68,21.719 l 14.22,37.5 c 3.75,0 7.19,-0.078 10.32,-0.149 3.2,0 6.71,0 10.46,0 v -70.16 c -5.85,-0.308 -12.3,-1.64 -19.37,-3.91 -7.11,-2.18 -15.55,-4.68 -25.31,-7.5 -9.81,-2.808 -21.17,-5.308 -34.07,-7.5 -12.92,-2.18 -28.08,-3.281 -45.46,-3.281 -25.32,0 -48.68,4.492 -70,13.441 -21.25,8.95 -39.65,21.481 -55.16,37.66 -15.55,16.25 -27.66,35.54 -36.41,57.969 -8.75,22.5 -13.12,47.34 -13.12,74.531 z" /><path
         id="path38"
         style="fill:#d7172f;fill-opacity:1;fill-rule:nonzero;stroke:none"
         d="m 0,111.02 28.9102,5.152 v 225.937 l -28.289106,2.969 v 16.871 H 45.6211 c 7.5781,0 14.1484,0.082 19.6875,0.321 5.6328,0.191 10.8203,0.46 15.6328,0.781 4.7578,0.39 9.4492,0.699 14.0586,0.929 4.5703,0.2 9.531,0.321 14.84,0.321 22.07,0.078 41.18,-2.821 57.351,-8.75 16.25,-5.86 29.61,-14.34 40.149,-25.473 10.629,-11.058 18.48,-24.488 23.601,-40.308 5.188,-15.86 7.809,-33.719 7.809,-53.598 0,-22.5 -3.52,-42.621 -10.469,-60.313 -6.992,-17.621 -16.519,-32.5 -28.59,-44.687 C 187.578,118.98 173.281,109.77 156.719,103.52 140.23,97.2695 122.578,94.3789 103.75,94.7695 95.3086,95 86.4492,95.3516 77.1914,95.8594 c -9.3008,0.5508 -19.6523,0.7812 -31.1016,0.7812 -7.7304,0 -15.4296,-0.082 -23.121,-0.1601 -7.6172,0 -15.26958,0 -22.9688,0 z m 62.1914,7.96 c 7.2578,-1.992 14.7578,-3.429 22.5,-4.371 7.8086,-0.859 16.1286,-1.168 24.9996,-0.937 12.5,0.387 24.411,2.887 35.778,7.5 11.332,4.687 21.332,11.637 30,20.937 8.633,9.371 15.511,21.129 20.621,35.313 5.082,14.137 7.66,30.937 7.66,50.308 0,20.2 -2.461,37.7 -7.34,52.5 -4.808,14.891 -11.719,27.192 -20.789,36.879 -8.98,9.77 -19.922,17.032 -32.812,21.719 -12.809,4.692 -27.188,6.762 -43.1176,6.25 -4.6914,-0.117 -8.832,-0.277 -12.3516,-0.469 -3.5507,-0.23 -6.789,-0.429 -9.6796,-0.629 -2.8204,-0.23 -5.4688,-0.539 -7.9688,-0.929 -2.4219,-0.43 -4.9219,-0.86 -7.5,-1.25 z m 271.5976,215.79 50.16,65.929 25,-25.469 c -3.437,-5.23 -7.969,-10.39 -13.597,-15.46 -5.551,-5 -11.403,-9.692 -17.653,-14.071 -6.179,-4.371 -12.347,-8.359 -18.597,-11.871 -6.172,-3.437 -11.563,-6.207 -16.25,-8.277 z M 270.98,191.48 c 0,14.571 2.258,28.008 6.872,40.321 4.687,12.258 11.128,22.89 19.378,31.871 8.321,9.058 18.282,16.168 29.84,21.41 11.641,5.188 24.45,7.969 38.442,8.277 10,0.192 19.058,-1.25 27.187,-4.379 8.121,-3.121 15,-7.769 20.621,-13.898 5.7,-6.172 10.2,-13.711 13.442,-22.66 3.316,-8.871 5.187,-18.902 5.617,-30.152 0.199,-7.188 0.043,-13.438 -0.469,-18.75 -0.539,-5.239 -1.051,-9.848 -1.558,-13.911 H 303.629 c 0,-0.629 0,-1.25 0,-1.879 0,-0.621 0.043,-1.32 0.16,-2.031 0.512,-13.75 2.852,-25.148 7.031,-34.219 4.258,-8.98 9.532,-16.089 15.782,-21.398 6.328,-5.312 13.32,-9.031 20.937,-11.102 7.691,-2.101 15.191,-3.121 22.5,-3.121 4.371,0 8.981,0.192 13.91,0.621 4.879,0.508 9.602,1.25 14.211,2.192 4.692,1.019 8.949,2.187 12.82,3.437 3.942,1.25 7.11,2.539 9.532,3.911 l 6.398,-14.54 c -3.359,-2.929 -7.648,-5.582 -12.961,-7.96 -5.32,-2.43 -11.097,-4.4614 -17.347,-6.0981 -6.25,-1.6406 -12.813,-2.8906 -19.692,-3.75 -6.789,-0.8203 -13.39,-1.25 -19.84,-1.25 -13.871,0 -26.09,2.3476 -36.718,7.0273 -10.622,4.7698 -19.614,11.4488 -26.872,19.9998 -7.308,8.641 -12.89,19.071 -16.718,31.25 -3.871,12.192 -5.782,25.781 -5.782,40.781 z m 126.559,18.29 c 0.313,5.82 0.352,11.64 0.16,17.5 -0.121,5.929 -0.789,11.48 -2.039,16.71 -1.25,5.321 -3.199,10.161 -5.781,14.54 -2.609,4.449 -6.051,8.039 -10.309,10.781 -3.05,1.871 -6.41,3.281 -10.16,4.219 -3.75,1.011 -8.039,1.562 -12.808,1.562 -6.372,0 -12.582,-1.211 -18.59,-3.602 -5.942,-2.421 -11.332,-6.25 -16.102,-11.558 -4.68,-5.231 -8.672,-11.953 -11.871,-20.152 -3.129,-8.25 -5.16,-18.25 -6.09,-30 z" /><path
         id="path40"
         style="fill:#d7172f;fill-opacity:1;fill-rule:nonzero;stroke:none"
         d="M 494.609,27.4219 V 253.672 l -24.379,13.437 v 10.473 l 45.321,13.59 7.969,-3.59 V 267.73 c 2.378,2.7 5.5,5.551 9.371,8.602 3.949,3.008 8.48,5.777 13.589,8.277 5.079,2.5 10.79,4.571 17.04,6.25 6.32,1.641 13.039,2.5 20.152,2.5 9.449,0 18.668,-1.718 27.656,-5.16 9.063,-3.359 17.07,-8.75 24.063,-16.25 7.07,-7.5 12.699,-17.34 16.879,-29.527 4.25,-12.113 6.402,-26.832 6.402,-44.223 0,-14.609 -2.422,-28.277 -7.192,-41.09 -4.679,-12.808 -11.359,-24.019 -20,-33.589 -8.55,-9.61 -18.82,-17.149 -30.781,-22.661 -11.988,-5.5074 -25.148,-8.277 -39.527,-8.277 -6.371,0 -12.422,0.5782 -18.121,1.7188 -5.629,1.0508 -11.211,2.2578 -16.723,3.75 l 1.094,-45.9414 V 27.2695 l 33.437,-3.5976 V 9.14063 h -90.16 V 23.6719 Z m 32.813,98.1291 c 2.578,-4.61 7.027,-8.25 13.277,-10.942 6.332,-2.73 14.461,-4.058 24.379,-4.058 7.5,0 14.762,1.48 21.871,4.531 7.192,3.008 13.641,7.848 19.379,14.527 5.703,6.641 10.352,15.231 13.902,25.782 3.641,10.507 5.551,23.281 5.79,38.281 0.191,14.379 -1.25,26.449 -4.379,36.25 -3.121,9.879 -7.34,17.887 -12.661,24.058 -5.308,6.25 -11.359,10.668 -18.121,13.29 -6.8,2.691 -13.75,4.062 -20.937,4.062 -5.434,0 -10.391,-0.633 -14.844,-1.883 -4.379,-1.25 -8.359,-2.808 -11.879,-4.679 -3.429,-1.801 -6.519,-3.719 -9.219,-5.79 -2.73,-2.101 -4.96,-3.898 -6.71,-5.46 l 0.152,-66.411 z" /><path
         id="path42"
         style="fill:#d7172f;fill-opacity:1;fill-rule:nonzero;stroke:none"
         d="m 695.898,151.48 c 0.821,8.008 3.364,15 7.653,20.942 4.379,6.019 9.73,11.168 16.097,15.469 6.442,4.379 13.512,7.968 21.25,10.781 7.813,2.808 15.622,5.039 23.442,6.719 7.89,1.757 15.5,2.968 22.808,3.589 7.262,0.711 13.633,1.102 19.063,1.102 v 15 c 0,8.938 -1.211,16.25 -3.59,21.867 -2.422,5.633 -5.742,10 -10,13.133 -4.18,3.199 -9.141,5.387 -14.851,6.559 -5.622,1.129 -11.79,1.718 -18.43,1.718 -3.36,0 -7.039,-0.308 -11.102,-0.937 -4.058,-0.621 -8.359,-1.524 -12.808,-2.652 -4.379,-1.18 -8.828,-2.5 -13.282,-4.071 -4.378,-1.558 -8.558,-3.359 -12.5,-5.308 l -6.41,15.468 c 4.262,3.321 9.422,6.289 15.473,8.911 6.129,2.57 12.379,4.718 18.75,6.402 6.449,1.637 12.699,2.887 18.75,3.75 6.129,0.816 11.41,1.25 15.777,1.25 8.953,0 17.5,-0.942 25.633,-2.813 8.199,-1.879 15.391,-5.238 21.559,-10 6.129,-4.687 10.98,-11.058 14.531,-19.058 3.629,-8.051 5.469,-18.281 5.469,-30.781 l -0.309,-117.5 h 21.867 V 99.7695 c -4.058,-2.1875 -9.019,-3.9492 -14.84,-5.3203 -5.859,-1.3281 -11.718,-2.0273 -17.66,-2.0273 -2.109,0 -4.328,0.1601 -6.718,0.4687 -2.418,0.2305 -4.61,0.8985 -6.559,2.0313 -1.992,1.1679 -3.672,2.8867 -5,5.3081 -1.25,2.391 -1.871,5.711 -1.871,10 v 4.692 c -2.621,-3.121 -5.75,-6.09 -9.379,-8.902 -3.551,-2.739 -7.66,-5.122 -12.34,-7.188 -4.609,-1.9922 -9.812,-3.5234 -15.633,-4.6914 -5.859,-1.1289 -12.34,-1.7187 -19.527,-1.7187 -8.981,0 -17.109,1.5586 -24.371,4.6875 -7.192,3.1996 -13.25,7.5386 -18.129,12.9726 -4.801,5.387 -8.359,11.637 -10.621,18.75 -2.309,7.188 -3.051,14.719 -2.192,22.648 z m 33.282,-0.621 c 0,-6.8 0.859,-12.5 2.66,-17.187 1.871,-4.613 4.531,-8.363 7.961,-11.25 3.437,-2.934 7.66,-5.082 12.66,-6.402 5,-1.25 10.66,-1.879 17.027,-1.879 3.321,0 6.762,0.39 10.313,1.25 3.519,0.941 6.918,2.07 10.16,3.441 3.32,1.328 6.328,2.887 9.059,4.688 2.82,1.75 5.082,3.511 6.878,5.312 0,10.699 0,21.328 0,31.867 0.082,10.512 0.192,21.141 0.313,31.883 -4.801,0 -10.082,-0.281 -15.781,-0.781 -5.739,-0.551 -11.481,-1.41 -17.192,-2.66 -5.617,-1.25 -11.168,-2.93 -16.558,-5 -5.309,-2.11 -10,-4.692 -14.059,-7.809 -4.07,-3.133 -7.351,-6.844 -9.851,-11.102 -2.418,-4.179 -3.59,-8.98 -3.59,-14.371 z" /><path
         id="path44"
         style="fill:#d7172f;fill-opacity:1;fill-rule:nonzero;stroke:none"
         d="m 894.84,111.02 23.281,3.429 v 139.223 l -24.371,13.437 v 10.473 l 45.469,13.59 7.812,-3.442 v -24.371 c 3.828,3.2 8.481,6.442 13.91,9.692 5.508,3.32 11.329,6.289 17.5,8.898 6.129,2.582 12.418,4.731 18.899,6.41 6.57,1.641 12.7,2.582 18.44,2.813 10.63,0.308 19.53,-1.012 26.72,-3.902 7.19,-2.93 12.97,-7.661 17.34,-14.219 4.46,-6.492 7.66,-14.852 9.54,-25.16 1.95,-10.231 2.96,-22.5 2.96,-36.871 v -96.571 l 27.5,-3.429 V 96.4805 h -86.09 V 111.02 l 25.78,3.589 v 90.473 c 0,10.309 -0.55,19.367 -1.56,27.188 -0.94,7.89 -2.93,14.41 -5.94,19.531 -3.05,5.078 -7.26,8.82 -12.65,11.25 -5.32,2.379 -12.31,3.429 -20.939,3.121 -7.113,-0.313 -14.613,-1.871 -22.5,-4.692 -7.82,-2.808 -16.062,-7.179 -24.691,-13.121 v -133.75 l 25.469,-3.589 V 96.4805 H 894.84 Z" /><path
         id="path46"
         style="fill:#d7172f;fill-opacity:1;fill-rule:nonzero;stroke:none"
         d="m 1133.4,111.02 23.28,3.429 v 139.223 l -24.38,13.437 v 10.473 l 45.47,13.59 7.82,-3.442 v -24.371 c 3.82,3.2 8.47,6.442 13.9,9.692 5.51,3.32 11.33,6.289 17.5,8.898 6.13,2.582 12.42,4.731 18.91,6.41 6.56,1.641 12.69,2.582 18.44,2.813 10.62,0.308 19.53,-1.012 26.71,-3.902 7.19,-2.93 12.97,-7.661 17.35,-14.219 4.45,-6.492 7.65,-14.852 9.53,-25.16 1.95,-10.231 2.97,-22.5 2.97,-36.871 v -96.571 l 27.5,-3.429 V 96.4805 h -86.1 V 111.02 l 25.79,3.589 v 90.473 c 0,10.309 -0.55,19.367 -1.57,27.188 -0.93,7.89 -2.93,14.41 -5.93,19.531 -3.05,5.078 -7.27,8.82 -12.66,11.25 -5.31,2.379 -12.31,3.429 -20.94,3.121 -7.11,-0.313 -14.61,-1.871 -22.5,-4.692 -7.81,-2.808 -16.05,-7.179 -24.69,-13.121 v -133.75 l 25.47,-3.589 V 96.4805 h -81.87 z" /><path
         id="path48"
         style="fill:#d7172f;fill-opacity:1;fill-rule:nonzero;stroke:none"
         d="m 1368.55,151.48 c 0.83,8.008 3.36,15 7.66,20.942 4.38,6.019 9.73,11.168 16.09,15.469 6.45,4.379 13.52,7.968 21.25,10.781 7.82,2.808 15.63,5.039 23.44,6.719 7.89,1.757 15.51,2.968 22.81,3.589 7.27,0.711 13.64,1.102 19.07,1.102 v 15 c 0,8.938 -1.21,16.25 -3.6,21.867 -2.42,5.633 -5.74,10 -10,13.133 -4.18,3.199 -9.14,5.387 -14.84,6.559 -5.63,1.129 -11.8,1.718 -18.44,1.718 -3.36,0 -7.03,-0.308 -11.09,-0.937 -4.06,-0.621 -8.36,-1.524 -12.81,-2.652 -4.38,-1.18 -8.83,-2.5 -13.29,-4.071 -4.37,-1.558 -8.55,-3.359 -12.5,-5.308 l -6.4,15.468 c 4.26,3.321 9.41,6.289 15.47,8.911 6.13,2.57 12.38,4.718 18.75,6.402 6.44,1.637 12.69,2.887 18.75,3.75 6.13,0.816 11.4,1.25 15.78,1.25 8.94,0 17.5,-0.942 25.62,-2.813 8.21,-1.879 15.39,-5.238 21.57,-10 6.13,-4.687 10.97,-11.058 14.53,-19.058 3.63,-8.051 5.47,-18.281 5.47,-30.781 l -0.32,-117.5 h 21.88 V 99.7695 c -4.06,-2.1875 -9.02,-3.9492 -14.85,-5.3203 -5.85,-1.3281 -11.71,-2.0273 -17.65,-2.0273 -2.11,0 -4.34,0.1601 -6.72,0.4687 -2.42,0.2305 -4.61,0.8985 -6.56,2.0313 -2,1.1679 -3.67,2.8867 -5,5.3081 -1.25,2.391 -1.88,5.711 -1.88,10 v 4.692 c -2.62,-3.121 -5.74,-6.09 -9.37,-8.902 -3.56,-2.739 -7.66,-5.122 -12.35,-7.188 -4.61,-1.9922 -9.8,-3.5234 -15.62,-4.6914 -5.86,-1.1289 -12.35,-1.7187 -19.53,-1.7187 -8.99,0 -17.11,1.5586 -24.38,4.6875 -7.19,3.1996 -13.24,7.5386 -18.12,12.9726 -4.81,5.387 -8.36,11.637 -10.63,18.75 -2.3,7.188 -3.04,14.719 -2.19,22.648 z m 33.29,-0.621 c 0,-6.8 0.86,-12.5 2.65,-17.187 1.88,-4.613 4.53,-8.363 7.97,-11.25 3.44,-2.934 7.66,-5.082 12.66,-6.402 5,-1.25 10.66,-1.879 17.03,-1.879 3.32,0 6.76,0.39 10.31,1.25 3.52,0.941 6.92,2.07 10.16,3.441 3.32,1.328 6.33,2.887 9.06,4.688 2.81,1.75 5.08,3.511 6.87,5.312 0,10.699 0,21.328 0,31.867 0.08,10.512 0.2,21.141 0.32,31.883 -4.81,0 -10.08,-0.281 -15.78,-0.781 -5.75,-0.551 -11.49,-1.41 -17.19,-2.66 -5.63,-1.25 -11.17,-2.93 -16.56,-5 -5.32,-2.11 -10,-4.692 -14.07,-7.809 -4.06,-3.133 -7.34,-6.844 -9.84,-11.102 -2.42,-4.179 -3.59,-8.98 -3.59,-14.371 z" /><path
         id="path50"
         style="fill:#d7172f;fill-opacity:1;fill-rule:nonzero;stroke:none"
         d="m 1565.62,56.6406 c 0,5.2383 0.94,10.2383 2.82,15 1.87,4.8086 4.22,9.2188 7.03,13.2813 2.89,3.9883 6.01,7.5 9.37,10.6289 3.32,3.1211 6.57,5.6602 9.69,7.6482 -5.12,1.762 -9.02,3.832 -11.72,6.25 -2.61,2.391 -4.49,4.891 -5.62,7.5 -1.06,2.582 -1.64,5.242 -1.72,7.973 -0.12,2.808 -0.16,5.387 -0.16,7.808 0,2.071 0.47,4.731 1.41,7.969 0.94,3.321 2.26,6.883 4.06,10.633 1.76,3.75 3.95,7.539 6.56,11.398 2.7,3.95 5.78,7.43 9.22,10.469 -8.55,5.082 -15.31,11.922 -20.31,20.473 -4.92,8.629 -7.34,19.219 -7.34,31.719 0,11.64 2.22,21.8 6.71,30.468 4.46,8.75 10.36,15.942 17.66,21.563 7.38,5.699 15.78,10 25.16,12.808 9.37,2.891 18.79,4.461 28.28,4.692 9.69,0.199 18.75,-0.863 27.19,-3.121 8.51,-2.192 16.09,-5.75 22.65,-10.629 2.27,2.699 5.63,4.848 10,6.41 4.38,1.637 10.2,2.5 17.5,2.5 h 20.63 v -25.781 h -33.44 c 2.38,-4.301 4.22,-9.18 5.47,-14.692 1.33,-5.429 2.03,-11.41 2.03,-17.968 0,-11.25 -2.11,-21.25 -6.25,-30 -4.18,-8.672 -9.77,-15.942 -16.72,-21.871 -6.99,-5.938 -15.12,-10.469 -24.37,-13.598 -9.18,-3.051 -18.75,-4.531 -28.75,-4.531 -13.44,0 -25.47,2.07 -36.1,6.25 -0.62,-1.801 -1.09,-3.75 -1.4,-5.942 -0.32,-2.109 -0.55,-4.14 -0.63,-6.09 0,-1.988 0,-3.871 0,-5.629 0.08,-1.789 0.16,-3.242 0.16,-4.371 0,-6.168 1.6,-10.937 4.84,-14.379 3.32,-3.429 8.99,-5.46 17.03,-6.089 5.2,-0.551 11.33,-0.86 18.44,-0.942 7.19,0 15.78,0 25.78,0 10.51,0 19.53,-0.859 27.03,-2.5 7.58,-1.558 13.83,-3.75 18.75,-6.558 5,-2.731 8.91,-5.903 11.72,-9.532 2.89,-3.668 5.08,-7.4606 6.56,-11.4098 1.45,-3.9375 2.35,-7.9687 2.66,-12.0273 0.39,-4.0625 0.62,-7.8906 0.62,-11.5625 0,-9.7696 -2.1,-18.6289 -6.24,-26.5586 -4.07,-8.0117 -9.97,-14.8906 -17.66,-20.6289 -7.74,-5.7031 -17.15,-10.1524 -28.28,-13.2813 -11.06,-3.12107 -23.67,-4.69138 -37.82,-4.69138 -10.23,0 -20.27,0.85937 -30.15,2.5 -9.81,1.57031 -18.59,4.33988 -26.41,8.28128 -7.73,3.8711 -13.98,9.0703 -18.75,15.6289 -4.8,6.5625 -7.19,14.7695 -7.19,24.5312 z m 82.04,123.2814 c 7.07,0 13.04,0.937 17.96,2.808 4.89,1.961 8.83,4.891 11.88,8.75 3.01,3.95 5.2,8.829 6.56,14.692 1.33,5.937 2.03,12.848 2.03,20.777 0,16.961 -3.67,29.531 -10.93,37.66 -7.31,8.2 -18.25,12.34 -32.82,12.34 -5.74,0 -11.09,-0.738 -16.09,-2.179 -4.92,-1.489 -9.22,-3.989 -12.97,-7.5 -3.67,-3.438 -6.52,-8.09 -8.59,-13.911 -2.11,-5.738 -3.13,-12.929 -3.13,-21.558 0,-7.11 0.82,-13.832 2.5,-20.16 1.64,-6.25 4.38,-11.801 8.13,-16.559 3.75,-4.691 8.51,-8.402 14.37,-11.102 5.82,-2.73 12.85,-4.058 21.1,-4.058 z m -50.32,-112.34 c 0,-7.7031 1.45,-14.2617 4.38,-19.6914 3.01,-5.3906 7.03,-9.7695 12.03,-13.1211 5,-3.4375 10.78,-5.8593 17.34,-7.3476 6.64,-1.5625 13.68,-2.3399 21.1,-2.3399 9.26,0 17.54,0.7774 24.84,2.3399 7.38,1.4883 13.63,3.75 18.75,6.8789 5.2,3.039 9.14,6.9492 11.88,11.7187 2.69,4.6797 4.06,10.2305 4.06,16.5625 0,5.5391 -0.63,10.4297 -1.88,14.6875 -1.25,4.2891 -3.71,7.9297 -7.34,10.9297 -3.67,2.9297 -8.75,5.1602 -15.31,6.7227 -6.57,1.4883 -15.12,2.1875 -25.63,2.1875 L 1640,97.582 c -6.8,0 -12.81,0.1485 -18.12,0.4688 -5.32,0.3906 -10.08,0.9687 -14.22,1.7187 -1.37,-1.6797 -2.66,-3.4804 -3.91,-5.4687 -1.17,-1.961 -2.27,-4.2188 -3.28,-6.7188 -0.94,-2.582 -1.72,-5.5117 -2.35,-8.75 -0.54,-3.2109 -0.78,-6.9531 -0.78,-11.25 z" /><path
         id="path52"
         style="fill:#d7172f;fill-opacity:1;fill-rule:nonzero;stroke:none"
         d="m 1766.68,191.48 c 0,14.571 2.27,28.008 6.87,40.321 4.69,12.258 11.14,22.89 19.38,31.871 8.32,9.058 18.28,16.168 29.84,21.41 11.64,5.188 24.46,7.969 38.44,8.277 10,0.192 19.06,-1.25 27.19,-4.379 8.12,-3.121 15,-7.769 20.62,-13.898 5.71,-6.172 10.2,-13.711 13.44,-22.66 3.32,-8.871 5.2,-18.902 5.63,-30.152 0.19,-7.188 0.03,-13.438 -0.47,-18.75 -0.55,-5.239 -1.06,-9.848 -1.57,-13.911 h -126.71 c 0,-0.629 0,-1.25 0,-1.879 0,-0.621 0.04,-1.32 0.15,-2.031 0.51,-13.75 2.85,-25.148 7.03,-34.219 4.26,-8.98 9.53,-16.089 15.78,-21.398 6.33,-5.312 13.32,-9.031 20.94,-11.102 7.7,-2.101 15.2,-3.121 22.5,-3.121 4.38,0 8.99,0.192 13.91,0.621 4.88,0.508 9.61,1.25 14.22,2.192 4.68,1.019 8.94,2.187 12.81,3.437 3.94,1.25 7.11,2.539 9.53,3.911 l 6.41,-14.54 c -3.36,-2.929 -7.66,-5.582 -12.97,-7.96 -5.31,-2.43 -11.1,-4.4614 -17.35,-6.0981 -6.25,-1.6406 -12.81,-2.8906 -19.68,-3.75 -6.8,-0.8203 -13.4,-1.25 -19.85,-1.25 -13.86,0 -26.09,2.3476 -36.72,7.0273 -10.62,4.7698 -19.6,11.4488 -26.87,19.9998 -7.3,8.641 -12.89,19.071 -16.72,31.25 -3.87,12.192 -5.78,25.781 -5.78,40.781 z m 126.56,18.29 c 0.31,5.82 0.35,11.64 0.16,17.5 -0.12,5.929 -0.78,11.48 -2.03,16.71 -1.25,5.321 -3.21,10.161 -5.78,14.54 -2.62,4.449 -6.06,8.039 -10.32,10.781 -3.04,1.871 -6.4,3.281 -10.15,4.219 -3.75,1.011 -8.05,1.562 -12.82,1.562 -6.36,0 -12.57,-1.211 -18.59,-3.602 -5.94,-2.421 -11.33,-6.25 -16.09,-11.558 -4.69,-5.231 -8.67,-11.953 -11.88,-20.152 -3.12,-8.25 -5.15,-18.25 -6.09,-30 z" /><path
         id="path54"
         style="fill:#d7172f;fill-opacity:1;fill-rule:nonzero;stroke:none"
         d="m 2091.6,331.48 c -2.73,0 -5.39,0.469 -7.97,1.411 -2.61,1.019 -4.96,2.379 -7.03,4.058 -1.99,1.762 -3.59,3.949 -4.84,6.571 -1.17,2.691 -1.72,5.66 -1.72,8.902 0,3.519 0.78,6.797 2.34,9.848 1.57,3.121 3.52,5.781 5.94,7.96 2.38,2.27 5.08,4.071 8.13,5.321 3,1.25 6.01,1.871 9.06,1.871 7.58,0 13.12,-2.113 16.56,-6.25 3.44,-4.184 5.16,-9.141 5.16,-14.844 0,-3.867 -0.75,-7.348 -2.19,-10.469 -1.49,-3.05 -3.4,-5.589 -5.78,-7.66 -2.42,-2.109 -5.16,-3.75 -8.28,-5 -3.05,-1.168 -6.18,-1.719 -9.38,-1.719 z m -37.65,-220.46 28.9,3.589 v 140 l -23.44,12.5 v 10.473 l 47.19,13.59 7.81,-3.442 V 114.609 l 27.66,-3.589 V 96.4805 h -88.12 z" /><path
         id="path56"
         style="fill:#d7172f;fill-opacity:1;fill-rule:nonzero;stroke:none"
         d="m 2175.2,111.02 23.28,3.429 v 139.223 l -24.38,13.437 v 10.473 l 45.47,13.59 7.81,-3.442 v -24.371 c 3.83,3.2 8.48,6.442 13.91,9.692 5.51,3.32 11.33,6.289 17.5,8.898 6.13,2.582 12.42,4.731 18.91,6.41 6.56,1.641 12.69,2.582 18.43,2.813 10.63,0.308 19.53,-1.012 26.72,-3.902 7.19,-2.93 12.97,-7.661 17.35,-14.219 4.45,-6.492 7.65,-14.852 9.53,-25.16 1.95,-10.231 2.97,-22.5 2.97,-36.871 v -96.571 l 27.5,-3.429 V 96.4805 h -86.1 V 111.02 l 25.78,3.589 v 90.473 c 0,10.309 -0.54,19.367 -1.56,27.188 -0.94,7.89 -2.93,14.41 -5.94,19.531 -3.04,5.078 -7.26,8.82 -12.65,11.25 -5.32,2.379 -12.31,3.429 -20.94,3.121 -7.11,-0.313 -14.61,-1.871 -22.5,-4.692 -7.81,-2.808 -16.06,-7.179 -24.69,-13.121 v -133.75 l 25.47,-3.589 V 96.4805 h -81.87 z" /><path
         id="path58"
         style="fill:#d7172f;fill-opacity:1;fill-rule:nonzero;stroke:none"
         d="m 2408.95,111.02 34.37,3.75 v 149.839 h -37.5 v 12.973 l 37.5,10.148 v 14.219 c 0,8.442 1.02,16.332 3.13,23.75 2.18,7.5 5.03,14.301 8.59,20.473 3.63,6.129 7.81,11.598 12.5,16.406 4.69,4.883 9.61,8.942 14.84,12.192 5.2,3.32 10.47,5.851 15.78,7.652 5.39,1.758 10.51,2.656 15.32,2.656 7.69,0 13.36,-0.387 17.03,-1.098 3.63,-0.621 6.09,-1.21 7.34,-1.71 v -29.071 c -1.56,0.942 -5.12,2.031 -10.62,3.281 -5.55,1.329 -12.43,2.04 -20.63,2.04 -4.69,0 -8.9,-0.43 -12.65,-1.25 -3.68,-0.86 -6.84,-2.739 -9.54,-5.629 -2.61,-2.813 -4.64,-7.11 -6.09,-12.813 -1.48,-5.629 -2.19,-13.277 -2.19,-22.969 V 287.73 h 51.57 v -23.121 h -51.57 v -150.16 l 39.38,-3.429 V 96.4805 h -106.56 z" /><path
         id="path60"
         style="fill:#d7172f;fill-opacity:1;fill-rule:nonzero;stroke:none"
         d="m 2550.55,196.02 c 0.31,15.191 2.97,28.781 7.97,40.781 5.07,12.07 11.79,22.258 20.15,30.621 8.32,8.316 17.89,14.687 28.75,19.058 10.94,4.461 22.27,6.758 34.06,6.879 14.46,0.082 27.07,-2.418 37.82,-7.5 10.7,-5.121 19.57,-12.148 26.56,-21.089 6.95,-8.989 12.19,-19.5 15.62,-31.571 3.44,-12.109 5.08,-25 5,-38.75 -0.11,-15.23 -2.57,-29.058 -7.34,-41.558 -4.69,-12.5 -11.05,-23.243 -19.06,-32.192 -8.05,-8.98 -17.46,-15.929 -28.28,-20.9295 -10.75,-4.8906 -22.27,-7.3476 -34.53,-7.3476 -15.75,0 -29.15,2.8086 -40.16,8.4371 -11.06,5.7 -20.08,13.36 -27.03,22.973 -6.99,9.566 -12.03,20.547 -15.16,32.969 -3.12,12.5 -4.61,25.539 -4.37,39.219 z m 88.28,-84.54 c 9.69,-0.23 17.85,1.45 24.53,5 6.64,3.52 12.07,8.75 16.25,15.629 4.14,6.871 7.19,15.391 9.06,25.621 1.88,10.2 2.81,21.918 2.81,35.161 0,11.449 -1.05,22.191 -3.12,32.191 -1.99,10 -5.12,18.668 -9.38,26.09 -4.29,7.379 -9.68,13.207 -16.25,17.5 -6.48,4.258 -14.21,6.488 -23.28,6.719 -9.68,0.078 -17.93,-1.559 -24.68,-5 -6.8,-3.442 -12.35,-8.551 -16.72,-15.309 -4.3,-6.801 -7.43,-15 -9.38,-24.691 -1.99,-9.61 -2.97,-20.59 -2.97,-32.969 0,-11.051 1.02,-21.723 3.13,-32.031 2.19,-10.231 5.39,-19.301 9.69,-27.192 4.37,-7.929 9.88,-14.328 16.56,-19.219 6.64,-4.8 14.57,-7.3 23.75,-7.5 z" /><path
         id="path62"
         style="fill:#d7172f;fill-opacity:1;fill-rule:nonzero;stroke:none"
         d="m 2762.81,111.02 27.66,3.589 v 139.063 l -24.38,13.437 v 10.473 l 45.16,13.59 8.13,-3.442 v -26.398 c 2.07,3.199 5.31,6.598 9.68,10.148 4.46,3.52 9.42,6.758 14.85,9.692 5.5,2.887 11.17,5.308 17.03,7.187 5.94,1.871 11.56,2.813 16.87,2.813 3.75,0 7.11,-0.121 10.16,-0.313 3.01,-0.121 5.15,-0.429 6.41,-0.937 v -35 c -1.88,0.629 -3.83,1.289 -5.79,2.027 -1.87,0.821 -4.02,1.492 -6.4,2.031 -2.31,0.508 -4.96,0.942 -7.97,1.25 -2.93,0.321 -6.33,0.469 -10.16,0.469 -9.18,0 -16.95,-1.211 -23.28,-3.59 -6.25,-2.308 -11.99,-5.078 -17.19,-8.277 v -133.75 l 48.75,-4.062 V 96.4805 h -109.53 z" /><path
         id="path64"
         style="fill:#d7172f;fill-opacity:1;fill-rule:nonzero;stroke:none"
         d="m 2925.12,111.02 23.28,3.75 v 138.902 l -24.38,13.437 v 10.473 l 45.47,13.59 7.81,-3.442 v -24.371 c 3.75,3.2 8.29,6.442 13.6,9.692 5.31,3.32 10.98,6.289 17.03,8.898 6.13,2.582 12.38,4.731 18.75,6.41 6.44,1.641 12.58,2.582 18.44,2.813 12.26,0.387 22.18,-1.25 29.68,-5 7.58,-3.672 13.52,-10.121 17.82,-19.371 4.06,3.121 8.83,6.09 14.37,8.898 5.63,2.891 11.49,5.473 17.66,7.66 6.25,2.192 12.5,3.942 18.75,5.313 6.25,1.449 12.07,2.269 17.5,2.5 10.62,0.308 19.57,-1.051 26.87,-4.063 7.27,-2.929 13.13,-7.73 17.5,-14.379 4.46,-6.558 7.7,-15.109 9.69,-25.621 1.95,-10.429 2.97,-22.968 2.97,-37.66 v -94.84 l 28.75,-3.589 V 96.4805 h -84.84 V 111.02 l 23.28,3.589 v 88.911 c 0,10.929 -0.55,20.39 -1.57,28.429 -1.05,8.012 -3.08,14.571 -6.09,19.692 -3.05,5.199 -7.26,8.98 -12.66,11.41 -5.31,2.379 -12.3,3.429 -20.93,3.121 -7.74,-0.313 -15.43,-1.793 -23.13,-4.371 -7.62,-2.5 -15.12,-5.903 -22.5,-10.16 1.25,-5.43 2.19,-11.68 2.81,-18.75 0.71,-6.993 1.1,-14.219 1.1,-21.719 v -96.723 l 26.09,-3.429 V 96.4805 h -84.53 V 111.02 l 25.63,3.75 v 91.402 c 0,10.816 -0.59,20.078 -1.72,27.808 -1.06,7.821 -3.13,14.141 -6.25,19.071 -3.05,4.879 -7.27,8.359 -12.66,10.469 -5.43,2.07 -12.46,2.96 -21.09,2.652 -6.17,-0.313 -13.21,-1.871 -21.1,-4.692 -7.93,-2.808 -16.21,-7.179 -24.84,-13.121 v -31.25 c 0,-17.187 -0.08,-34.3 -0.16,-51.25 -0.11,-16.988 -0.11,-34.058 0,-51.25 l 25.47,-3.589 V 96.4805 h -81.87 z" /><path
         id="path66"
         style="fill:#d7172f;fill-opacity:1;fill-rule:nonzero;stroke:none"
         d="m 3275.78,151.48 c 0.82,8.008 3.36,15 7.66,20.942 4.37,6.019 9.72,11.168 16.09,15.469 6.45,4.379 13.52,7.968 21.25,10.781 7.81,2.808 15.63,5.039 23.44,6.719 7.89,1.757 15.51,2.968 22.81,3.589 7.27,0.711 13.63,1.102 19.06,1.102 v 15 c 0,8.938 -1.21,16.25 -3.59,21.867 -2.42,5.633 -5.74,10 -10,13.133 -4.18,3.199 -9.14,5.387 -14.84,6.559 -5.63,1.129 -11.8,1.718 -18.44,1.718 -3.36,0 -7.03,-0.308 -11.1,-0.937 -4.06,-0.621 -8.35,-1.524 -12.81,-2.652 -4.37,-1.18 -8.83,-2.5 -13.28,-4.071 -4.37,-1.558 -8.55,-3.359 -12.5,-5.308 l -6.41,15.468 c 4.26,3.321 9.42,6.289 15.47,8.911 6.14,2.57 12.39,4.718 18.75,6.402 6.45,1.637 12.7,2.887 18.75,3.75 6.14,0.816 11.41,1.25 15.79,1.25 8.94,0 17.5,-0.942 25.62,-2.813 8.2,-1.879 15.39,-5.238 21.56,-10 6.14,-4.687 10.98,-11.058 14.53,-19.058 3.64,-8.051 5.47,-18.281 5.47,-30.781 l -0.31,-117.5 h 21.87 V 99.7695 c -4.06,-2.1875 -9.02,-3.9492 -14.84,-5.3203 -5.86,-1.3281 -11.72,-2.0273 -17.66,-2.0273 -2.1,0 -4.33,0.1601 -6.71,0.4687 -2.43,0.2305 -4.61,0.8985 -6.57,2.0313 -1.99,1.1679 -3.67,2.8867 -5,5.3081 -1.25,2.391 -1.87,5.711 -1.87,10 v 4.692 c -2.62,-3.121 -5.74,-6.09 -9.38,-8.902 -3.55,-2.739 -7.65,-5.122 -12.34,-7.188 -4.61,-1.9922 -9.8,-3.5234 -15.63,-4.6914 -5.85,-1.1289 -12.34,-1.7187 -19.53,-1.7187 -8.98,0 -17.11,1.5586 -24.37,4.6875 -7.19,3.1996 -13.24,7.5386 -18.13,12.9726 -4.8,5.387 -8.36,11.637 -10.62,18.75 -2.31,7.188 -3.05,14.719 -2.19,22.648 z m 33.28,-0.621 c 0,-6.8 0.86,-12.5 2.66,-17.187 1.87,-4.613 4.53,-8.363 7.97,-11.25 3.43,-2.934 7.65,-5.082 12.65,-6.402 5,-1.25 10.67,-1.879 17.04,-1.879 3.32,0 6.75,0.39 10.31,1.25 3.51,0.941 6.91,2.07 10.15,3.441 3.32,1.328 6.33,2.887 9.07,4.688 2.81,1.75 5.07,3.511 6.87,5.312 0,10.699 0,21.328 0,31.867 0.08,10.512 0.2,21.141 0.31,31.883 -4.8,0 -10.07,-0.281 -15.78,-0.781 -5.74,-0.551 -11.48,-1.41 -17.19,-2.66 -5.62,-1.25 -11.17,-2.93 -16.56,-5 -5.31,-2.11 -10,-4.692 -14.06,-7.809 -4.06,-3.133 -7.34,-6.844 -9.84,-11.102 -2.43,-4.179 -3.6,-8.98 -3.6,-14.371 z" /><path
         id="path68"
         style="fill:#d7172f;fill-opacity:1;fill-rule:nonzero;stroke:none"
         d="m 3496.29,141.332 c 0,20.938 0,41.719 0,62.34 0.08,20.707 0.16,41.558 0.16,62.5 h -26.1 v 12.808 c 5,1.25 9.14,2.231 12.5,2.969 3.32,0.711 6.1,1.571 8.28,2.5 2.27,1.02 4.14,2.27 5.63,3.75 1.44,1.449 2.81,3.641 4.06,6.571 0.82,1.871 1.8,4.679 2.97,8.429 1.25,3.832 2.38,7.699 3.44,11.571 1.13,3.941 2.07,7.652 2.81,11.089 0.82,3.52 1.33,6.02 1.56,7.5 h 16.88 V 287.73 h 57.5 v -21.558 h -57.5 v -86.09 c 0,-13.242 0.15,-24.031 0.47,-32.352 0.39,-8.242 1.28,-14.679 2.65,-19.371 1.33,-4.609 3.32,-7.738 5.94,-9.379 2.69,-1.679 6.33,-2.5 10.94,-2.5 2.89,0 6.09,0.239 9.53,0.79 3.51,0.621 6.91,1.281 10.15,2.031 3.21,0.82 6.18,1.719 8.91,2.648 2.7,1.02 4.73,2.031 6.09,2.973 l 5.32,-15.152 c -2.62,-2.821 -6.1,-5.321 -10.47,-7.5 -4.3,-2.188 -8.99,-4.0317 -14.06,-5.4692 -5,-1.4492 -10.08,-2.5391 -15.16,-3.2813 -5.12,-0.7109 -9.61,-1.0976 -13.44,-1.0976 -12.42,0 -22.03,3.8281 -28.9,11.4101 -6.8,7.578 -10.16,20.078 -10.16,37.5 z" /><path
         id="path70"
         style="fill:#d7172f;fill-opacity:1;fill-rule:nonzero;stroke:none"
         d="m 3655.66,331.48 c -2.73,0 -5.39,0.469 -7.96,1.411 -2.62,1.019 -4.97,2.379 -7.04,4.058 -1.99,1.762 -3.59,3.949 -4.84,6.571 -1.17,2.691 -1.72,5.66 -1.72,8.902 0,3.519 0.78,6.797 2.35,9.848 1.56,3.121 3.51,5.781 5.93,7.96 2.39,2.27 5.08,4.071 8.13,5.321 3.01,1.25 6.01,1.871 9.06,1.871 7.58,0 13.13,-2.113 16.56,-6.25 3.44,-4.184 5.16,-9.141 5.16,-14.844 0,-3.867 -0.74,-7.348 -2.19,-10.469 -1.48,-3.05 -3.4,-5.589 -5.78,-7.66 -2.42,-2.109 -5.16,-3.75 -8.28,-5 -3.05,-1.168 -6.17,-1.719 -9.38,-1.719 z m -37.65,-220.46 28.9,3.589 v 140 l -23.43,12.5 v 10.473 l 47.18,13.59 7.82,-3.442 V 114.609 l 27.65,-3.589 V 96.4805 h -88.12 z" /><path
         id="path72"
         style="fill:#d7172f;fill-opacity:1;fill-rule:nonzero;stroke:none"
         d="m 3807.23,91.6406 c -4.07,0 -8.75,0.4688 -14.07,1.4102 -5.23,0.9297 -10.58,2.6484 -16.09,5.1484 -5.55,2.4998 -10.94,6.0198 -16.25,10.6328 -5.31,4.566 -10.08,10.469 -14.22,17.648 -4.06,7.192 -7.42,15.942 -10,26.25 -2.62,10.391 -3.9,22.739 -3.9,37.04 0,14.449 2.5,28 7.5,40.621 5,12.699 11.91,23.668 20.78,32.968 8.94,9.371 19.61,16.723 32.03,22.032 12.5,5.39 26.13,8.129 40.94,8.129 6.87,0 13.51,-0.629 20,-1.879 6.44,-1.25 11.64,-2.661 15.62,-4.219 l 20.63,3.91 6.71,-3.441 V 28.9805 l 23.29,-3.5899 V 9.14063 h -91.25 V 25.3906 l 35.15,3.5899 v 59.539 l 1.1,26.0895 c -2,-1.988 -4.65,-4.3 -7.97,-6.879 -3.36,-2.609 -7.43,-5.109 -12.19,-7.5 -4.81,-2.4214 -10.31,-4.4097 -16.56,-6.0894 -6.25,-1.6406 -13.36,-2.5 -21.25,-2.5 z m 12.03,23.7504 c 5.31,0 10.31,0.468 15,1.41 4.69,0.929 8.9,2.109 12.65,3.59 3.83,1.558 7.19,3.32 10,5.308 2.89,1.961 5.32,3.91 7.19,5.781 v 130.161 c -3.98,5.078 -9.02,8.629 -15.15,10.629 -6.18,1.949 -12.97,2.96 -20.47,2.96 -8.75,0 -16.96,-1.679 -24.53,-5 -7.62,-3.242 -14.22,-8.199 -19.85,-14.839 -5.62,-6.68 -10.12,-15 -13.44,-25 -3.36,-10 -5.11,-21.68 -5.31,-35 -0.23,-13.243 0.94,-24.84 3.44,-34.84 2.5,-9.93 6.09,-18.211 10.78,-24.852 4.69,-6.679 10.35,-11.719 17.03,-15.148 6.76,-3.442 14.3,-5.16 22.66,-5.16 z" /><path
         id="path74"
         style="fill:#d7172f;fill-opacity:1;fill-rule:nonzero;stroke:none"
         d="m 3964.84,263.52 -17.65,5 v 13.281 l 44.06,9.371 5.94,-3.121 v -117.66 c 0,-9.493 0.47,-17.621 1.4,-24.371 1.02,-6.801 2.89,-12.43 5.63,-16.879 2.81,-4.371 6.6,-7.621 11.4,-9.692 4.77,-2.109 10.94,-3.117 18.44,-3.117 5.08,0 10.08,0.656 15,2.027 5,1.442 9.61,3.161 13.91,5.161 4.26,2.07 8.01,4.21 11.25,6.402 3.2,2.187 5.55,4.058 7.03,5.629 v 126.398 l -21.41,5.473 v 13.91 l 48.91,9.84 4.84,-2.973 V 111.02 h 20.47 V 98.0508 c -1.79,-0.9414 -3.9,-1.8008 -6.4,-2.6602 -2.5,-0.8203 -5.24,-1.5586 -8.13,-2.1914 -2.81,-0.6992 -5.74,-1.289 -8.75,-1.7187 -3.05,-0.5 -5.94,-0.7813 -8.75,-0.7813 -5.43,0 -9.69,1.211 -12.81,3.6016 -3.13,2.2578 -4.69,5.9692 -4.69,11.0902 v 14.058 c -9.92,-8.75 -20.31,-15.39 -31.25,-19.8396 -10.86,-4.4492 -21.48,-6.7188 -31.87,-6.7188 -13.44,0 -23.91,2.1094 -31.41,6.25 -7.5,4.1404 -13.12,9.8794 -16.88,17.1914 -3.67,7.379 -5.93,16.09 -6.87,26.09 -0.86,10 -1.33,20.937 -1.41,32.808 z" /><path
         id="path76"
         style="fill:#d7172f;fill-opacity:1;fill-rule:nonzero;stroke:none"
         d="m 4166.09,191.48 c 0,14.571 2.27,28.008 6.88,40.321 4.69,12.258 11.13,22.89 19.37,31.871 8.32,9.058 18.28,16.168 29.85,21.41 11.64,5.188 24.45,7.969 38.43,8.277 10,0.192 19.07,-1.25 27.19,-4.379 8.13,-3.121 15,-7.769 20.63,-13.898 5.7,-6.172 10.19,-13.711 13.44,-22.66 3.32,-8.871 5.19,-18.902 5.62,-30.152 0.2,-7.188 0.04,-13.438 -0.47,-18.75 -0.55,-5.239 -1.05,-9.848 -1.56,-13.911 h -126.72 c 0,-0.629 0,-1.25 0,-1.879 0,-0.621 0.04,-1.32 0.16,-2.031 0.5,-13.75 2.85,-25.148 7.03,-34.219 4.26,-8.98 9.53,-16.089 15.78,-21.398 6.33,-5.312 13.32,-9.031 20.94,-11.102 7.69,-2.101 15.19,-3.121 22.5,-3.121 4.37,0 8.98,0.192 13.9,0.621 4.89,0.508 9.61,1.25 14.22,2.192 4.69,1.019 8.95,2.187 12.81,3.437 3.95,1.25 7.11,2.539 9.53,3.911 l 6.41,-14.54 c -3.36,-2.929 -7.65,-5.582 -12.97,-7.96 -5.31,-2.43 -11.09,-4.4614 -17.34,-6.0981 -6.25,-1.6406 -12.81,-2.8906 -19.69,-3.75 -6.8,-0.8203 -13.4,-1.25 -19.84,-1.25 -13.87,0 -26.1,2.3476 -36.72,7.0273 -10.63,4.7698 -19.61,11.4488 -26.88,19.9998 -7.3,8.641 -12.89,19.071 -16.71,31.25 -3.87,12.192 -5.79,25.781 -5.79,40.781 z m 126.57,18.29 c 0.31,5.82 0.35,11.64 0.15,17.5 -0.11,5.929 -0.78,11.48 -2.03,16.71 -1.25,5.321 -3.2,10.161 -5.78,14.54 -2.62,4.449 -6.05,8.039 -10.31,10.781 -3.05,1.871 -6.41,3.281 -10.16,4.219 -3.75,1.011 -8.05,1.562 -12.81,1.562 -6.37,0 -12.58,-1.211 -18.6,-3.602 -5.93,-2.421 -11.32,-6.25 -16.09,-11.558 -4.69,-5.231 -8.67,-11.953 -11.87,-20.152 -3.13,-8.25 -5.16,-18.25 -6.1,-30 z" /></g></g></svg>